<svg xmlns="http://www.w3.org/2000/svg" viewBox="0 0 384 512"><!--!Font Awesome Free 6.5.1 by @fontawesome - https://fontawesome.com License - https://fontawesome.com/license/free Copyright 2024 Fonticons, Inc.--><path d="M336 160H48c-26.5 0-48 21.5-48 48v224c0 26.5 21.5 48 48 48h16v16c0 8.8 7.2 16 16 16h32c8.8 0 16-7.2 16-16v-16h128v16c0 8.8 7.2 16 16 16h32c8.8 0 16-7.2 16-16v-16h16c26.5 0 48-21.5 48-48V208c0-26.5-21.5-48-48-48zm-16 216c0 4.4-3.6 8-8 8H72c-4.4 0-8-3.6-8-8v-16c0-4.4 3.6-8 8-8h240c4.4 0 8 3.6 8 8v16zm0-96c0 4.4-3.6 8-8 8H72c-4.4 0-8-3.6-8-8v-16c0-4.4 3.6-8 8-8h240c4.4 0 8 3.6 8 8v16zM144 48h96v80h48V48c0-26.5-21.5-48-48-48h-96c-26.5 0-48 21.5-48 48v80h48V48z"/></svg>